<svg id="blind-icon" xmlns="http://www.w3.org/2000/svg" width="30.906" height="30.946" viewBox="0 0 30.906 30.946">
  <path id="Path_679" data-name="Path 679" d="M703.541,2066.924a3.151,3.151,0,0,0-3.221-3.244q-12.254-.011-24.507,0a3.133,3.133,0,0,0-3.174,3.21q0,1.056,0,2.111,0,11.058,0,22.117c0,.2,0,.41.014.614a3.086,3.086,0,0,0,2.578,2.765h0a3,3,0,0,0,1.338.1q6.737,0,13.474-.03a1.3,1.3,0,0,1-.009-.153,1.3,1.3,0,0,0,.009.153h.263a16.27,16.27,0,0,0,2.6-.009l1.367-.018a52.419,52.419,0,0,0,5.921-.008,3.113,3.113,0,0,0,3.344-3.23Q703.549,2079.111,703.541,2066.924Zm-13.689-.367a1.934,1.934,0,1,1-1.875,1.919A1.848,1.848,0,0,1,689.851,2066.557Zm-8.584,24.244c.029-.133.052-.267.087-.4q1.319-4.928,2.64-9.855a.919.919,0,0,0-.124-.994c-.251-.279-.15-.7-.054-1.049.556-2.059,1.114-4.118,1.69-6.171a1.939,1.939,0,0,1,2.043-1.554c1.57-.013,3.14-.015,4.71,0a2.01,2.01,0,0,1,2.14,2.144c.023,2.184.012,4.369,0,6.553,0,.769-.344,1.18-.929,1.179-.562,0-.9-.359-.917-1.12-.032-1.57-.008-3.14-.018-4.71a1.34,1.34,0,0,0-.146-.887c-.238.241-.149.495-.15.718q-.008,7.68-.008,15.36c0,.341-.023.682-.035,1.022a3.522,3.522,0,0,1,.629-.305,3.522,3.522,0,0,0-.629.305,2.648,2.648,0,0,1-.666.65,8.012,8.012,0,0,1-.8.925,8.012,8.012,0,0,0,.8-.925c-1.047.037-1.4-.3-1.4-1.341q0-4.4,0-8.807c0-.227-.014-.455-.015-.682,0-.171-.014-.327-.235-.339-.287-.015-.252.2-.254.374,0,.455,0,.91,0,1.365,0,2.754,0,5.507-.007,8.26a1.1,1.1,0,0,1-1.629,1.044,1.192,1.192,0,0,1-.51-1.181q0-4.4.006-8.806,0-3.448-.009-6.895c0-.23.134-.6-.12-.657-.39-.082-.5.321-.582.621-.384,1.376-.754,2.756-1.125,4.135-.132.493-.277.968-.84,1.146-.246.078-.224.312-.276.5q-1.352,5.058-2.707,10.115c-.029.11-.073.217-.092.328-.034.2-.09.373-.338.314C681.172,2091.135,681.233,2090.957,681.267,2090.8Zm-2.764,3.676q1.639-.009,3.279-.015Q680.143,2094.466,678.5,2094.477Z" transform="translate(-672.638 -2063.674)" fill="#313131"/>
  <path id="Path_680" data-name="Path 680" d="M746.521,2135.869a2.643,2.643,0,0,1-.666.65c-1.047.037-1.4-.3-1.4-1.341q0-4.4,0-8.806c0-.228-.014-.455-.015-.682,0-.171-.014-.327-.235-.339-.287-.015-.252.2-.254.375,0,.455,0,.91,0,1.365,0,2.754,0,5.507-.007,8.26a1.1,1.1,0,0,1-1.629,1.043,1.191,1.191,0,0,1-.51-1.181q0-4.4.006-8.806,0-3.447-.009-6.894c0-.23.134-.6-.12-.657-.39-.082-.5.321-.582.621-.384,1.376-.754,2.756-1.125,4.135-.132.493-.277.969-.84,1.146-.246.078-.224.312-.276.5q-1.352,5.058-2.707,10.115c-.029.11-.073.217-.092.328-.034.2-.09.373-.338.314-.225-.054-.165-.231-.13-.388.029-.133.052-.267.087-.4q1.319-4.928,2.64-9.855a.918.918,0,0,0-.124-.994c-.251-.279-.149-.7-.054-1.049.556-2.059,1.114-4.118,1.69-6.171a1.938,1.938,0,0,1,2.043-1.554c1.57-.013,3.14-.015,4.71,0a2.01,2.01,0,0,1,2.14,2.144c.023,2.184.012,4.369,0,6.553,0,.769-.344,1.18-.929,1.179-.562,0-.9-.359-.917-1.12-.032-1.569-.008-3.14-.018-4.71a1.339,1.339,0,0,0-.146-.887c-.238.241-.149.495-.15.718q-.008,7.68-.008,15.36C746.556,2135.187,746.533,2135.528,746.521,2135.869Z" transform="translate(-726.96 -2108.505)" fill="#fdfdfd"/>
</svg>
