<svg id="dog-icon" xmlns="http://www.w3.org/2000/svg" width="30.926" height="30.96" viewBox="0 0 30.926 30.96">
  <path id="Path_682" data-name="Path 682" d="M131.888,2067.073a3.164,3.164,0,0,0-3.42-3.379q-12.042,0-24.085,0a3.188,3.188,0,0,0-3.413,3.4q0,10.579,0,21.158c0,.978.011,1.956.017,2.933a1.754,1.754,0,0,0,.1.988,3.043,3.043,0,0,0,2.554,2.349,18.571,18.571,0,0,0,3.525.082c7.139.027,14.279.01,21.419.005a1.07,1.07,0,0,0,.6-.07,3.134,3.134,0,0,0,2.7-3.315Q131.9,2079.151,131.888,2067.073Zm-26.689.145c.4-.116.358.228.425.45a7.158,7.158,0,0,0,5.485,5.053,54.921,54.921,0,0,1,7.878,2.594c.352.151.539.18.7-.284a36.747,36.747,0,0,1,2.232-4.888c.08-.151.108-.409.333-.38.27.034.16.3.147.448-.1,1.178.657,1.764,1.541,2.268,1.122.639,2.4.95,3.484,1.672.541.36.6.777.05,1.126a2.754,2.754,0,0,0-.787.732c-.486.675-1.245.577-1.922.688a1.824,1.824,0,0,0-1.179.448c-.208.23-.392.117-.606.016-1-.475-2.016-.937-3.021-1.409-.232-.109-.5-.274-.632.059s.247.3.419.376c1.135.537,2.271,1.075,3.422,1.578.281.123.271.3.3.529a10.111,10.111,0,0,1-.667,4.75,13.562,13.562,0,0,0-.606,5.649c.035.636.043,1.274.084,1.909.022.328-.109.464-.426.446-.023,0-.045,0-.068,0-2.2-.008-1.848.433-1.959-1.777a19.692,19.692,0,0,1,.084-2.174,2.993,2.993,0,0,0-1.573-2.966,19.386,19.386,0,0,0-4.458-1.644,2.178,2.178,0,0,0-2.252,1.2c-.608,1.06-1.176,2.142-1.753,3.219a1.884,1.884,0,0,0-.179.928c.008.887-.011,1.776.024,2.662.017.431-.147.556-.549.544-2.048-.063-1.638.4-1.909-1.744a7,7,0,0,1,.352-3.29,3.89,3.89,0,0,0,.118-2.287,9.913,9.913,0,0,1-.238-2.912,1.808,1.808,0,0,0-.915-1.827c-.313-.181-.579-.441-.886-.636-.346-.22-.456-.452-.221-.838a.562.562,0,0,1,.895-.239,4.968,4.968,0,0,0,3.005.661c2.534-.194,5.1-.116,7.526-1.075.695-.275,1.389-.552,2.24-.89a56.376,56.376,0,0,0-5.6-2.012,38.075,38.075,0,0,1-4.043-1.2,7.606,7.606,0,0,1-4.387-4.924C105.049,2067.655,104.776,2067.341,105.2,2067.219Z" transform="translate(-100.967 -2063.694)" fill="#313131"/>
  <path id="Path_683" data-name="Path 683" d="M144.414,2098.1a56.376,56.376,0,0,0-5.6-2.012,38.076,38.076,0,0,1-4.043-1.2,7.606,7.606,0,0,1-4.387-4.924c-.055-.179-.328-.493.095-.616.4-.115.358.228.425.45a7.158,7.158,0,0,0,5.485,5.053,54.919,54.919,0,0,1,7.878,2.594c.352.151.539.18.7-.284a36.776,36.776,0,0,1,2.232-4.888c.08-.151.108-.409.333-.38.27.035.16.3.147.448-.1,1.177.657,1.764,1.541,2.268,1.122.639,2.4.95,3.484,1.672.541.36.6.777.05,1.126a2.754,2.754,0,0,0-.787.732c-.486.675-1.245.577-1.922.688a1.822,1.822,0,0,0-1.179.448c-.207.23-.392.117-.606.016-1-.475-2.016-.937-3.021-1.409-.232-.109-.5-.274-.632.059s.247.3.419.376c1.135.537,2.271,1.075,3.422,1.578.281.123.271.3.3.529a10.11,10.11,0,0,1-.667,4.75,13.563,13.563,0,0,0-.606,5.649c.035.636.043,1.274.084,1.909.021.328-.109.464-.426.447-.023,0-.045,0-.068,0-2.2-.008-1.848.434-1.959-1.777a19.688,19.688,0,0,1,.084-2.173,2.993,2.993,0,0,0-1.573-2.966,19.4,19.4,0,0,0-4.458-1.644,2.178,2.178,0,0,0-2.252,1.2c-.608,1.06-1.176,2.142-1.753,3.219a1.885,1.885,0,0,0-.179.928c.008.887-.011,1.776.024,2.662.017.431-.147.557-.549.544-2.048-.063-1.638.4-1.909-1.744a7,7,0,0,1,.352-3.29,3.89,3.89,0,0,0,.118-2.287,9.914,9.914,0,0,1-.238-2.912,1.808,1.808,0,0,0-.915-1.827c-.313-.181-.579-.441-.886-.636-.346-.22-.456-.452-.221-.838a.562.562,0,0,1,.895-.239,4.968,4.968,0,0,0,3.005.661c2.534-.194,5.1-.116,7.526-1.075C142.869,2098.714,143.563,2098.437,144.414,2098.1Z" transform="translate(-126.244 -2085.822)" fill="#fdfdfd"/>
</svg>
