<svg xmlns="http://www.w3.org/2000/svg" width="16.283" height="20.275" viewBox="0 0 16.283 20.275">
  <path id="Icon_awesome-angle-double-down" data-name="Icon awesome-angle-double-down" d="M7.273,14.141.355,7.223a1.216,1.216,0,0,1,0-1.724L1.5,4.349a1.216,1.216,0,0,1,1.724,0l4.9,4.9,4.9-4.9a1.216,1.216,0,0,1,1.724,0l1.16,1.145a1.216,1.216,0,0,1,0,1.724L9,14.136A1.217,1.217,0,0,1,7.273,14.141ZM9,23.907l6.918-6.918a1.216,1.216,0,0,0,0-1.724l-1.15-1.15a1.216,1.216,0,0,0-1.724,0l-4.909,4.9-4.9-4.9a1.216,1.216,0,0,0-1.724,0L.355,15.26a1.216,1.216,0,0,0,0,1.724L7.273,23.9A1.217,1.217,0,0,0,9,23.907Z" transform="translate(0.004 -3.99)" fill="#313131"/>
</svg>
