<svg xmlns="http://www.w3.org/2000/svg" width="29.979" height="20.985" viewBox="0 0 29.979 20.985">
  <path id="Icon_awesome-car-side" data-name="Icon awesome-car-side" d="M4.5,9.745h.749l5.1-6.37A3,3,0,0,1,12.683,2.25H22.7a3,3,0,0,1,2.783,1.884l2.244,5.716a2.991,2.991,0,0,1,2.248,2.892v5.246a.749.749,0,0,1-.749.749H26.981a4.5,4.5,0,0,1-8.994,0h-6a4.5,4.5,0,0,1-8.994,0H.749A.749.749,0,0,1,0,17.989V14.242A4.5,4.5,0,0,1,4.5,9.745ZM22.484,20.987a2.248,2.248,0,1,0-2.248-2.248A2.251,2.251,0,0,0,22.484,20.987ZM19.112,9.745H24.5l-1.8-4.5H19.112Zm-2.248,0v-4.5h-4.18l-3.6,4.5ZM7.495,20.987a2.248,2.248,0,1,0-2.248-2.248A2.251,2.251,0,0,0,7.495,20.987Z" transform="translate(0 -2.25)" fill="#313131"/>
</svg>
