<svg xmlns="http://www.w3.org/2000/svg" xmlns:xlink="http://www.w3.org/1999/xlink" width="194.499" height="32.553" viewBox="0 0 194.499 32.553">
  <defs>
    <linearGradient id="linear-gradient" y1="0.5" x2="1" y2="0.5" gradientUnits="objectBoundingBox">
      <stop offset="0" stop-color="#313131"/>
      <stop offset="0.386" stop-color="#323637"/>
      <stop offset="1" stop-color="#ffe56e"/>
    </linearGradient>
  </defs>
  <g id="ohya_logo_main" transform="translate(-58.728 -1035.758)">
    <g id="OhYa" transform="translate(58.728 1035.758)">
      <path id="Path_1027" data-name="Path 1027" d="M73.929,1041.778a14.837,14.837,0,0,1,5.956,1.208,15.352,15.352,0,0,1,9.287,14.2,15.055,15.055,0,0,1-1.187,5.956,15.237,15.237,0,0,1-8.1,8.163,14.822,14.822,0,0,1-5.956,1.208,14.673,14.673,0,0,1-5.935-1.208,15.295,15.295,0,0,1-8.08-8.163,15.055,15.055,0,0,1-1.187-5.956,15.312,15.312,0,0,1,9.266-14.2A14.687,14.687,0,0,1,73.929,1041.778Zm0,26.446a9.883,9.883,0,0,0,4.1-.871,10.75,10.75,0,0,0,3.373-2.365,11.236,11.236,0,0,0,3.1-7.8,11.44,11.44,0,0,0-3.1-7.863,10.6,10.6,0,0,0-3.373-2.386,9.894,9.894,0,0,0-4.1-.871,9.749,9.749,0,0,0-4.081.871,10.668,10.668,0,0,0-3.353,2.386,11.44,11.44,0,0,0-3.1,7.863,11.236,11.236,0,0,0,3.1,7.8,10.819,10.819,0,0,0,3.353,2.365A9.738,9.738,0,0,0,73.929,1068.224Z" transform="translate(-58.728 -1040.122)" fill="#313131"/>
      <path id="Path_1028" data-name="Path 1028" d="M252.824,1047.123a8.4,8.4,0,0,1,2.746,2.984,8.211,8.211,0,0,1,1.025,4.047v10.985h-3.771v-10.985a4.46,4.46,0,0,0-.366-1.794,4.773,4.773,0,0,0-2.49-2.49,4.46,4.46,0,0,0-1.794-.366,4.586,4.586,0,0,0-1.813.366,4.5,4.5,0,0,0-1.483,1.007,4.922,4.922,0,0,0-.989,1.483,4.451,4.451,0,0,0-.366,1.794v10.985h-3.772v-32.407h3.772v14.391a8.449,8.449,0,0,1,9.3,0Z" transform="translate(-204.778 -1032.732)" fill="#313131"/>
      <path id="Path_1029" data-name="Path 1029" d="M370.284,1037.289v.043l-9.738,21.191v10.339h-4.59v-10.339l-9.738-21.191h.043l-.043-.043h5.1l6.95,16.816,6.949-16.816Z" transform="translate(-294.498 -1036.455)" fill="#313131"/>
      <path id="Path_1030" data-name="Path 1030" d="M458.339,1103.933a9.406,9.406,0,0,1,3.783.769,10.084,10.084,0,0,1,3.107,2.087,9.739,9.739,0,0,1,2.869,6.921v9.484h-3.772v-1.775a10.368,10.368,0,0,1-2.746,1.487,9.765,9.765,0,0,1-7.012-.225,9.784,9.784,0,0,1-5.181-5.182,9.436,9.436,0,0,1-.769-3.79,9.586,9.586,0,0,1,.767-3.808,9.725,9.725,0,0,1,5.172-5.2A9.407,9.407,0,0,1,458.339,1103.933Zm.018,15.745a5.674,5.674,0,0,0,2.325-.479,6.106,6.106,0,0,0,3.167-3.187,5.681,5.681,0,0,0,.476-2.3,5.768,5.768,0,0,0-.476-2.339,6.1,6.1,0,0,0-3.167-3.187,5.885,5.885,0,0,0-4.651,0,6.1,6.1,0,0,0-3.167,3.188,5.762,5.762,0,0,0-.476,2.339,5.675,5.675,0,0,0,.476,2.3,6.106,6.106,0,0,0,3.167,3.187A5.67,5.67,0,0,0,458.357,1119.678Z" transform="translate(-377.233 -1090.897)" fill="#313131"/>
      <path id="Path_1052" data-name="Path 1052" d="M448.022-267.488a15.794,15.794,0,0,0-1.7-3.049,15.447,15.447,0,0,1,.845,5.131,15.054,15.054,0,0,1-1.187,5.956,15.459,15.459,0,0,1-3.248,4.873,15.008,15.008,0,0,1-2.98,2.332,10.971,10.971,0,0,1-1.689.939,9.551,9.551,0,0,1-1.835.616,9.847,9.847,0,0,1-2.268.256,9.71,9.71,0,0,1-4.081-.873,10.8,10.8,0,0,1-3.353-2.363,11.169,11.169,0,0,1-2.27-3.507,10.773,10.773,0,0,1-.4-1.152,11.3,11.3,0,0,1-1.635-2.784,11.1,11.1,0,0,1-.833-4.294,11.253,11.253,0,0,1,.833-4.315,11.366,11.366,0,0,1,2.27-3.548,10.659,10.659,0,0,1,1.764-1.5,15.053,15.053,0,0,0-3.059,2.384,15.39,15.39,0,0,0-3.248,4.894,15.308,15.308,0,0,0-1.187,6.018,15.217,15.217,0,0,0,.829,5.029c.108.312.229.62.358.927a15.46,15.46,0,0,0,3.248,4.873,15.365,15.365,0,0,0,4.831,3.29,14.677,14.677,0,0,0,5.935,1.208,14.819,14.819,0,0,0,5.955-1.208,15.315,15.315,0,0,0,4.852-3.29,15.458,15.458,0,0,0,3.249-4.873,15.054,15.054,0,0,0,1.187-5.956A15.308,15.308,0,0,0,448.022-267.488Z" transform="translate(-418.765 278.489)" fill="url(#linear-gradient)"/>
    </g>
    <g id="形狀_3" data-name="形狀 3" transform="translate(124.033 1035.758)">
      <path id="形狀_3-2" data-name="形狀 3" d="M.812,22.031S-2.968,3.388,5.781.438a7.142,7.142,0,0,1,5.184.105Z" transform="translate(0 0)" fill="#ffd900" fill-rule="evenodd"/>
    </g>
    <g id="無障礙計程車" transform="translate(165.81 1044.14)">
      <g id="Group_528" data-name="Group 528" transform="translate(0 0)">
        <path id="Path_1032" data-name="Path 1032" d="M636.941,1092.027h7.436q.687-.9.875-.9a3.607,3.607,0,0,1,.969.637q.412.333.412.463t-.2.145H644.6v3.139h.427q.752-.918.94-.919a3.376,3.376,0,0,1,.918.651q.383.318.383.463c0,.1-.065.145-.2.145H644.6v3.219h.181q.709-.962.9-.962a3.233,3.233,0,0,1,.918.666q.4.361.4.485,0,.152-.2.152H635.133a6.636,6.636,0,0,0-.948.087l-.159-.55a5.474,5.474,0,0,0,1.107.123h.774v-3.219h-1.034a5.711,5.711,0,0,0-.875.087l-.166-.542a5.126,5.126,0,0,0,1.042.116h1.034v-2.358a10.131,10.131,0,0,1-1.939,1.317.029.029,0,0,1-.022.007.1.1,0,0,1-.116-.116.05.05,0,0,1,.014-.036,10.964,10.964,0,0,0,2.076-2.886,7.348,7.348,0,0,0,.651-1.693,11.068,11.068,0,0,1,1.5.513q.318.159.318.318,0,.275-.694.354Q637.3,1091.563,636.941,1092.027Zm-.723,8.116a4.5,4.5,0,0,1,.1.933,2.29,2.29,0,0,1-.564,1.656,1.458,1.458,0,0,1-1.107.478.754.754,0,0,1-.579-.224.676.676,0,0,1-.2-.5.994.994,0,0,1,.818-.962,2.241,2.241,0,0,0,.911-.521,2.05,2.05,0,0,0,.463-.868.063.063,0,0,1,.065-.051A.078.078,0,0,1,636.218,1100.143Zm2.177-4.637v-3.139h-1.2v3.139Zm0,3.559v-3.219h-1.2v3.219Zm.268,4.13a.544.544,0,0,1-.622-.608,3.627,3.627,0,0,1,.072-.622,4.994,4.994,0,0,0,.072-.781,4,4,0,0,0-.1-.948.065.065,0,0,1,.033-.076.164.164,0,0,1,.061-.018.106.106,0,0,1,.058.014,2.634,2.634,0,0,1,1.418,2.076.912.912,0,0,1-.3.723A1,1,0,0,1,638.663,1103.2Zm2.177-7.689v-3.139h-1.2v3.139Zm0,3.559v-3.219h-1.2v3.219Zm1.967,3.14a.822.822,0,0,1-.275.666.862.862,0,0,1-.586.2.554.554,0,0,1-.506-.253,1.912,1.912,0,0,1-.188-.8,4.754,4.754,0,0,0-.485-1.736.063.063,0,0,1-.007-.029c0-.072.034-.109.1-.109a.057.057,0,0,1,.022.007,3.665,3.665,0,0,1,1.5,1.005A1.63,1.63,0,0,1,642.808,1102.2Zm.477-6.7v-3.139H642.1v3.139Zm0,3.559v-3.219H642.1v3.219Zm3.154,3.241a.886.886,0,0,1-.275.673.839.839,0,0,1-.586.217.581.581,0,0,1-.514-.21,2.737,2.737,0,0,1-.3-.839,4.777,4.777,0,0,0-.434-1.056,5.832,5.832,0,0,0-.622-.832.087.087,0,0,1-.014-.051q0-.116.094-.094a4.572,4.572,0,0,1,2.026.969A1.628,1.628,0,0,1,646.439,1102.306Z" transform="translate(-633.831 -1089.741)" fill="#313131"/>
        <path id="Path_1033" data-name="Path 1033" d="M710.271,1099.65l.044,3.942q0,.608-.781.608a.648.648,0,0,1-.485-.137.512.512,0,0,1-.108-.369l.058-7.407q0-4.108-.087-5.533.825.354,1.5.709h1.324q.47-.579.637-.579t.781.608q.326.3.325.463a.168.168,0,0,1-.079.152,2.367,2.367,0,0,1-.333.108,22.334,22.334,0,0,1-2,3.277,6.3,6.3,0,0,1,1.5,1.83,3.745,3.745,0,0,1,.369,1.685,2.328,2.328,0,0,1-.412,1.526,1.325,1.325,0,0,1-1.071.427q-.289,0-.311-.326a1.113,1.113,0,0,0-.217-.622A2.011,2.011,0,0,0,710.271,1099.65Zm1.468-7.848h-1.468v7.66q.513.043.933.044a.7.7,0,0,0,.34-.058q.239-.144.239-1.085a4.1,4.1,0,0,0-.275-1.569,4.676,4.676,0,0,0-.781-1.244A34.351,34.351,0,0,0,711.739,1091.8Zm6.047,7.986v1.686h2.307q.81-.846.977-.847a3.53,3.53,0,0,1,.933.593q.384.282.384.441t-.188.152h-4.412v.1l.029,1.707q0,.607-.8.608a.757.757,0,0,1-.528-.137.635.635,0,0,1-.123-.441l.043-1.642v-.195h-2.561a10.578,10.578,0,0,0-1.215.087l-.166-.543a8.734,8.734,0,0,0,1.367.116h2.575v-1.686h-1.454v.174a.562.562,0,0,1-.181.484.934.934,0,0,1-.514.108q-.608,0-.608-.427l.058-1.765q0-1.714-.087-2.843a12.262,12.262,0,0,1,1.425.651h4.275q.6-.622.752-.622a2.3,2.3,0,0,1,.781.506q.311.246.311.4t-.4.4v2.966q0,.622-.723.622-.579,0-.579-.521v-.13Zm-2.3-5.071q-.3-.072-.369-.55a2.558,2.558,0,0,0-.535-1.295.076.076,0,0,1-.014-.043c0-.043.026-.065.079-.065h.021q1.678.376,1.678,1.244a.646.646,0,0,1-.578.709h2.09q.34-.788.441-1.085.152-.427.3-.991a13.617,13.617,0,0,1,1.4.629q.2.123.2.246,0,.217-.579.239a11.392,11.392,0,0,1-1.2.962h1.656q.76-.818.933-.817a3.22,3.22,0,0,1,.89.564q.383.318.383.448c0,.1-.063.145-.188.145h-8.254a9.537,9.537,0,0,0-1.143.087l-.159-.543a7.36,7.36,0,0,0,1.244.116Zm.9-2.445v-.593q0-.427-.058-1.107,1.852.159,1.852.412,0,.2-.427.354v.933h2q.709-.846.89-.846a2.828,2.828,0,0,1,.875.593q.369.3.369.449c0,.1-.065.145-.2.145h-7.082a8.355,8.355,0,0,0-1.078.087l-.166-.542a6.74,6.74,0,0,0,1.2.116Zm3.081,5.483v-1.244h-4.514v1.244Zm0,1.693v-1.353h-4.514v1.353Z" transform="translate(-693.887 -1090.406)" fill="#313131"/>
        <path id="Path_1034" data-name="Path 1034" d="M781.428,1097.443a.617.617,0,0,1,.072.058c.034.024.063.043.087.058h.434q.5-.622.666-.622t.665.492q.253.246.253.4,0,.188-.325.412v.875l.043,4.47q0,.492-.68.492-.478,0-.477-.4v-.441h-.738v1.092q0,.521-.695.521-.536,0-.535-.441l.072-3.349q0-1.085.014-1.721a9.876,9.876,0,0,1-.911,1.056.041.041,0,0,1-.029.014c-.082,0-.123-.043-.123-.13a.057.057,0,0,1,.007-.022,15.522,15.522,0,0,0,1.83-6.518h-.593a5.781,5.781,0,0,0-.9.087l-.167-.543a5.206,5.206,0,0,0,1.056.116H781.9q.586-.831.789-.832.152,0,.781.579.325.3.326.448c0,.1-.063.145-.188.145H782.39A13.654,13.654,0,0,1,781.428,1097.443Zm.738,5.454v-5h-.738v5Zm2.676-4.3a5.571,5.571,0,0,1-1.273,1.374.089.089,0,0,1-.051.014c-.077,0-.116-.024-.116-.072v-.015a9.691,9.691,0,0,0,.76-1.968q.072-.34.2-1.2a8.363,8.363,0,0,1,1.223.4q.239.116.239.26c0,.1-.13.166-.391.21q-.08.137-.21.369-.116.2-.167.282h1.114q.478-.724.68-.723.152,0,.709.5.3.3.3.42c0,.1-.063.145-.188.145h-1.425q-.021,1.092-.116,1.9h.174q.456-.767.666-.767.152,0,.637.55a.781.781,0,0,1,.253.412c0,.1-.063.145-.188.145h-1.6a7.312,7.312,0,0,1-.239.991q1.389.542,1.389,1.273a.617.617,0,0,1-.181.456.553.553,0,0,1-.4.152q-.383,0-.514-.47a3.747,3.747,0,0,0-.412-1.056,6.065,6.065,0,0,1-2.835,3.1.023.023,0,0,1-.015.007q-.123,0-.123-.145a.049.049,0,0,1,.014-.036,6.61,6.61,0,0,0,1.534-2,7.5,7.5,0,0,0,.608-2.279h-.463a4.782,4.782,0,0,0-.825.087l-.167-.543a4.7,4.7,0,0,0,.991.116h.506q.058-.644.087-1.9Zm.268-4.42a6.692,6.692,0,0,0,1.005-.825,4.321,4.321,0,0,0,.593-.716q1.223.883,1.222,1.092,0,.152-.34.152a2.043,2.043,0,0,1-.318-.029,14.4,14.4,0,0,1-2.163.774v.68q0,.3.116.369a.982.982,0,0,0,.441.065,2.386,2.386,0,0,0,1.23-.2,3.13,3.13,0,0,0,.608-1.121.079.079,0,0,1,.079-.051q.072,0,.072.058v.593a.847.847,0,0,0,.029.282.429.429,0,0,0,.145.123.549.549,0,0,1,.3.47q0,.362-.463.564a4.977,4.977,0,0,1-1.837.253,2.7,2.7,0,0,1-1.512-.3,1.045,1.045,0,0,1-.369-.9l.029-1.483q0-.89-.036-1.837,1.179.173,1.41.239c.13.039.2.1.2.174q0,.2-.434.376Zm3.827,7.675a2.879,2.879,0,0,0,.933,1.382v-5.808H788.7a5.04,5.04,0,0,0-1.034.116l-.166-.571a6.6,6.6,0,0,0,1.172.116h2.98q.572-.622.724-.622t.745.579q.3.318.3.456,0,.253-.268.253a.637.637,0,0,0-.347.087,2.182,2.182,0,0,0-.333.267,8.557,8.557,0,0,1-1.034.767.068.068,0,0,1-.051.022.051.051,0,0,1-.058-.058.114.114,0,0,1,.007-.036,6.321,6.321,0,0,0,.448-1.374h-.723v2.713h.224q.55-.818.752-.817.151,0,.774.564.326.3.325.441,0,.152-.2.152h-1.88v3.262a12.038,12.038,0,0,0,2.322.145c.043,0,.065.014.065.043a.065.065,0,0,1-.036.058,1.377,1.377,0,0,0-.42.449,1.656,1.656,0,0,0-.159.564.685.685,0,0,1-.08.325.266.266,0,0,1-.2.058,2.743,2.743,0,0,1-.651-.087,4.142,4.142,0,0,1-1.9-.9,4.722,4.722,0,0,1-1.244-1.989,5.193,5.193,0,0,1-1.07,1.83,7.381,7.381,0,0,1-1.548,1.244.068.068,0,0,1-.029.007c-.072,0-.109-.034-.109-.1a.058.058,0,0,1,.015-.043,8.081,8.081,0,0,0,2.1-5.975q0-.34-.014-.608a12.278,12.278,0,0,1,1.36.282q.239.087.239.224,0,.166-.412.326A13.917,13.917,0,0,1,788.937,1101.855Zm1.548-7.11a10.138,10.138,0,0,0,.832-1.584h-2.192a5.1,5.1,0,0,0-1.027.116l-.159-.571a6.5,6.5,0,0,0,1.172.116h2.163q.622-.607.767-.608t.8.622c.217.217.326.374.326.47a.205.205,0,0,1-.145.2,1.757,1.757,0,0,1-.47.094,14.645,14.645,0,0,1-1.664,1.425,1.192,1.192,0,0,1,.5.861.752.752,0,0,1-.231.564.7.7,0,0,1-.492.188.465.465,0,0,1-.391-.166,1.809,1.809,0,0,1-.261-.542,3,3,0,0,0-1.208-1.62.043.043,0,0,1-.022-.036q0-.116.109-.094A4.664,4.664,0,0,1,790.485,1094.745Z" transform="translate(-750.128 -1091.707)" fill="#313131"/>
        <path id="Path_1035" data-name="Path 1035" d="M862.46,1093.936q0,.145-.188.145h-5.244a7.106,7.106,0,0,0-1.005.087l-.167-.543a6.541,6.541,0,0,0,1.186.116h3.14q.73-.9.919-.9a3.614,3.614,0,0,1,.948.622Q862.46,1093.813,862.46,1093.936Zm-2.51,9.317h-2.033v.383q0,.565-.774.564-.622,0-.622-.492l.065-2.828a17.986,17.986,0,0,0-.094-2.011q.839.347,1.577.738h1.765q.608-.708.767-.709a2.328,2.328,0,0,1,.8.521q.326.282.325.427,0,.2-.448.485v.521l.065,2.611q0,.579-.789.579-.607,0-.607-.463Zm1.627-7.378c0,.1-.065.145-.2.145h-3.79a5.677,5.677,0,0,0-.9.087l-.166-.543a5.393,5.393,0,0,0,1.071.116h1.91q.644-.8.832-.8a3.128,3.128,0,0,1,.875.564Q861.578,1095.744,861.578,1095.874Zm.174-3.913c0,.1-.065.145-.2.145h-3.979a5.574,5.574,0,0,0-.875.087l-.166-.543a5.131,5.131,0,0,0,1.042.116h1.881q.752-.89.933-.89a3.613,3.613,0,0,1,.948.622Q861.752,1091.831,861.751,1091.961Zm-.159,5.823q0,.145-.2.145h-3.776a5.744,5.744,0,0,0-.89.087l-.166-.543a5.2,5.2,0,0,0,1.056.116H859.5q.636-.832.832-.832a3.053,3.053,0,0,1,.89.593Q861.592,1097.633,861.592,1097.784Zm-1.642,5.129v-2.966h-2.033v2.966Zm5.967-6.539q.014,2.416.065,4.962.036,1.873.036,2.148,0,.665-.962.666-.637,0-.637-.55l.072-7.1v-.13h-1.555a6.733,6.733,0,0,0-.976.087l-.159-.543a6.079,6.079,0,0,0,1.136.116h1.555q0-4.586-.13-5.317a16.179,16.179,0,0,1,1.765.173q.311.08.311.253a.22.22,0,0,1-.094.181,3.5,3.5,0,0,1-.427.217v4.492h1.114q.861-1.1,1.049-1.1a3.564,3.564,0,0,1,.991.76q.434.405.434.528,0,.152-.2.152Z" transform="translate(-811.427 -1090.522)" fill="#313131"/>
        <path id="Path_1036" data-name="Path 1036" d="M930.107,1097.163a15.729,15.729,0,0,1-1.208,2.04,13.312,13.312,0,0,1-1.222,1.381.059.059,0,0,1-.043.014c-.087,0-.13-.041-.13-.123a.062.062,0,0,1,.007-.029,20.161,20.161,0,0,0,2.372-5.6H928.8a4.811,4.811,0,0,0-.8.087l-.159-.543a4.366,4.366,0,0,0,.962.116h1.244v-2.387q-1.027.159-2.134.224c-.058,0-.087-.039-.087-.116,0-.038.012-.06.036-.065a14.53,14.53,0,0,0,3.4-1.432,4.813,4.813,0,0,0,.81-.593q1.294.933,1.295,1.172,0,.189-.311.188a1.76,1.76,0,0,1-.4-.058q-.774.246-1.317.4v2.669h.34q.535-.817.745-.817.167,0,.723.593.3.3.3.419c0,.1-.065.145-.2.145h-1.91v1.143q1.823.731,1.823,1.787a.819.819,0,0,1-.253.6.656.656,0,0,1-.47.217.378.378,0,0,1-.34-.152,1.361,1.361,0,0,1-.152-.456,3.848,3.848,0,0,0-.608-1.7v.427l.014,6.474q0,.55-.825.55-.593,0-.593-.412,0-.051.087-2.611Q930.1,1098.544,930.107,1097.163Zm6.156,5.57v-2.6h-1.7a6.066,6.066,0,0,0-.919.087l-.166-.543a5.153,5.153,0,0,0,1.049.116h1.736v-2.329h-1.91a4.911,4.911,0,0,0-.832.087l-.159-.543a4.45,4.45,0,0,0,.977.116h4.695q.716-.788.89-.789a2.732,2.732,0,0,1,.875.564q.369.282.369.419t-.2.145h-3.364v2.329h1.085q.7-.831.882-.832a2.623,2.623,0,0,1,.861.608q.34.3.34.419,0,.145-.188.145h-2.98v2.6h1.721q.817-.9.991-.9a2.857,2.857,0,0,1,.861.622q.369.347.369.477c0,.1-.065.145-.2.145h-7.581a8.922,8.922,0,0,0-1.1.087l-.159-.542a7.075,7.075,0,0,0,1.23.116Zm2.59-7.472h-3.718v.268q0,.535-.781.535a.772.772,0,0,1-.478-.108.469.469,0,0,1-.116-.355l.043-2.77q0-1.331-.079-2.293a14.127,14.127,0,0,1,1.483.709h3.545q.615-.651.767-.651a2.1,2.1,0,0,1,.759.492q.311.246.311.412t-.376.412v.55l.051,2.915q0,.564-.8.564-.608,0-.608-.427Zm0-.34v-3.335h-3.718v3.335Z" transform="translate(-868.737 -1090.059)" fill="#313131"/>
        <path id="Path_1037" data-name="Path 1037" d="M1009.484,1094.217v-1.57h-4.3a8.966,8.966,0,0,0-1.128.087l-.159-.542a7.786,7.786,0,0,0,1.287.116h4.3a19.9,19.9,0,0,0-.1-2.025,15.557,15.557,0,0,1,1.635.21q.238.073.239.246t-.47.383v1.186h3.537q.8-.947.977-.948a3.964,3.964,0,0,1,1.042.666q.441.34.441.477t-.2.145h-5.8v1.57h2.734q.6-.68.76-.68a2.482,2.482,0,0,1,.832.55q.34.3.34.441,0,.21-.463.506v.68l.058,3.436q0,.55-.825.55-.549,0-.549-.47v-.224h-2.857l.014,1.722h3.732q.8-.991.991-.991a4.226,4.226,0,0,1,1.078.694q.478.354.477.492c0,.1-.065.145-.2.145h-6.084q.029,2.228.029,2.387,0,.565-.854.564-.622,0-.622-.506,0-.623.043-2.445h-4.42a9.459,9.459,0,0,0-1.136.087l-.166-.542a7.871,7.871,0,0,0,1.288.116h4.434q0-.565.029-1.722h-2.684v.268a.5.5,0,0,1-.217.463,1.228,1.228,0,0,1-.615.116q-.564,0-.564-.478l.08-4.34a12.8,12.8,0,0,0-.08-1.541,15.4,15.4,0,0,1,1.555.723Zm0,.34h-2.713v1.809h2.7q.014-.369.015-1.1Zm-.029,4.109q.014-.579.014-1.96h-2.7v1.96Zm1.331-4.109q0,1.2.015,1.809h2.872v-1.809Zm.029,4.109h2.857v-1.96H1010.8Q1010.8,1098.087,1010.815,1098.666Z" transform="translate(-929.69 -1090.174)" fill="#313131"/>
      </g>
    </g>
    <g id="accessible_taxi" data-name="accessible  taxi" transform="translate(158.503 1044.854)">
      <g id="Group_529" data-name="Group 529" transform="translate(7.361 15.326)">
        <path id="Path_1038" data-name="Path 1038" d="M636.487,1187.322a1.758,1.758,0,0,1-1.316.509,1.11,1.11,0,0,1-.807-.293.86.86,0,0,1-.257-.64,1.062,1.062,0,0,1,.315-.811,2.963,2.963,0,0,1,1.1-.491,2.557,2.557,0,0,0,.73-.311.446.446,0,0,0,.2-.352v-.239q0-.947-.59-.946a.886.886,0,0,0-.626.221.615.615,0,0,0-.167.455.342.342,0,0,1-.185.293.752.752,0,0,1-.406.1.219.219,0,0,1-.248-.248q0-.419.563-.766a2.056,2.056,0,0,1,1.1-.307,1.316,1.316,0,0,1,1,.307,1.278,1.278,0,0,1,.234.874l-.018,2q-.013.784.347.784a.374.374,0,0,0,.225-.072.188.188,0,0,1,.081-.032.088.088,0,0,1,.072.05.157.157,0,0,1,.031.09.065.065,0,0,1-.036.054,1.152,1.152,0,0,1-.685.234A.644.644,0,0,1,636.487,1187.322Zm-.036-1.893a2.236,2.236,0,0,1-.847.437,1.364,1.364,0,0,0-.609.388.811.811,0,0,0-.158.514.7.7,0,0,0,.225.536.645.645,0,0,0,.446.176.986.986,0,0,0,.708-.257.693.693,0,0,0,.225-.518Z" transform="translate(-634.107 -1180.778)" fill="#868585"/>
        <path id="Path_1039" data-name="Path 1039" d="M662.69,1183.5a2.657,2.657,0,0,1,1.041.2q.342.148.343.388a.73.73,0,0,1-.108.433.238.238,0,0,1-.2.122q-.158,0-.433-.406l-.059-.081a.734.734,0,0,0-.618-.374.966.966,0,0,0-.861.554,2.594,2.594,0,0,0-.293,1.312,1.927,1.927,0,0,0,.46,1.334,1.107,1.107,0,0,0,.843.415,1.551,1.551,0,0,0,.771-.167,1.664,1.664,0,0,0,.473-.455c.024-.03.045-.045.063-.045a.179.179,0,0,1,.117.045.1.1,0,0,1,.049.076.177.177,0,0,1-.018.054,1.778,1.778,0,0,1-1.586.924,1.815,1.815,0,0,1-1.451-.658,2.448,2.448,0,0,1,.153-3.137A1.818,1.818,0,0,1,662.69,1183.5Z" transform="translate(-655.399 -1180.778)" fill="#868585"/>
        <path id="Path_1040" data-name="Path 1040" d="M688.655,1183.5a2.657,2.657,0,0,1,1.041.2q.342.148.343.388a.73.73,0,0,1-.108.433.238.238,0,0,1-.2.122q-.158,0-.433-.406l-.059-.081a.734.734,0,0,0-.617-.374.966.966,0,0,0-.861.554,2.594,2.594,0,0,0-.293,1.312,1.927,1.927,0,0,0,.46,1.334,1.107,1.107,0,0,0,.843.415,1.551,1.551,0,0,0,.771-.167,1.664,1.664,0,0,0,.473-.455c.024-.03.045-.045.063-.045a.179.179,0,0,1,.117.045.1.1,0,0,1,.049.076.176.176,0,0,1-.018.054,1.778,1.778,0,0,1-1.586.924,1.815,1.815,0,0,1-1.451-.658,2.448,2.448,0,0,1,.153-3.137A1.819,1.819,0,0,1,688.655,1183.5Z" transform="translate(-676.168 -1180.778)" fill="#868585"/>
        <path id="Path_1041" data-name="Path 1041" d="M713.43,1185.276a3.079,3.079,0,0,0-.027.374,1.9,1.9,0,0,0,.482,1.343,1.2,1.2,0,0,0,.892.424,1.46,1.46,0,0,0,1.257-.649.071.071,0,0,1,.063-.036.162.162,0,0,1,.108.05.1.1,0,0,1,.049.072.2.2,0,0,1-.054.117,1.774,1.774,0,0,1-1.55.861,1.878,1.878,0,0,1-1.5-.653,2.2,2.2,0,0,1-.5-1.478,2.227,2.227,0,0,1,.64-1.645,1.809,1.809,0,0,1,1.334-.554,1.564,1.564,0,0,1,1.212.527,1.788,1.788,0,0,1,.451,1.109.153.153,0,0,1-.045.113.133.133,0,0,1-.095.045q-.933-.027-1.816-.027Q713.719,1185.267,713.43,1185.276Zm.054-.324q.27.009.757.009.626,0,1.194-.036c.06,0,.09-.04.09-.122a1.278,1.278,0,0,0-.315-.784.78.78,0,0,0-.582-.252.961.961,0,0,0-.73.347A1.836,1.836,0,0,0,713.484,1184.951Z" transform="translate(-696.937 -1180.778)" fill="#868585"/>
        <path id="Path_1042" data-name="Path 1042" d="M742.126,1183.6q.009.293.077.987v.027c0,.036-.04.054-.122.054a.088.088,0,0,1-.09-.063,1.089,1.089,0,0,0-1.041-.852.7.7,0,0,0-.536.2.634.634,0,0,0-.167.455.491.491,0,0,0,.162.379,2.174,2.174,0,0,0,.631.352l.334.14a1.949,1.949,0,0,1,.861.586,1.109,1.109,0,0,1,.189.667,1.178,1.178,0,0,1-.442.969,1.666,1.666,0,0,1-1.073.325,3.191,3.191,0,0,1-1.163-.23q-.09-.329-.194-.888l-.009-.072q0-.077.113-.077a.1.1,0,0,1,.1.054,1.649,1.649,0,0,0,.564.717,1.09,1.09,0,0,0,.649.225.791.791,0,0,0,.622-.253.769.769,0,0,0,.2-.541.672.672,0,0,0-.185-.482,1.823,1.823,0,0,0-.582-.356l-.324-.14a2.075,2.075,0,0,1-.852-.563,1.1,1.1,0,0,1-.18-.662.955.955,0,0,1,.4-.793,1.37,1.37,0,0,1,.861-.27,2.774,2.774,0,0,1,.613.086,2.17,2.17,0,0,0,.356.027Q742,1183.613,742.126,1183.6Z" transform="translate(-718.445 -1180.778)" fill="#868585"/>
        <path id="Path_1043" data-name="Path 1043" d="M765.614,1183.6q.009.293.077.987v.027c0,.036-.041.054-.122.054a.088.088,0,0,1-.09-.063,1.089,1.089,0,0,0-1.041-.852.7.7,0,0,0-.536.2.634.634,0,0,0-.167.455.491.491,0,0,0,.162.379,2.174,2.174,0,0,0,.631.352l.333.14a1.946,1.946,0,0,1,.861.586,1.108,1.108,0,0,1,.189.667,1.177,1.177,0,0,1-.442.969,1.665,1.665,0,0,1-1.073.325,3.191,3.191,0,0,1-1.163-.23q-.09-.329-.194-.888l-.009-.072q0-.077.113-.077a.1.1,0,0,1,.1.054,1.649,1.649,0,0,0,.563.717,1.091,1.091,0,0,0,.649.225.791.791,0,0,0,.622-.253.77.77,0,0,0,.2-.541.671.671,0,0,0-.185-.482,1.822,1.822,0,0,0-.581-.356l-.325-.14a2.079,2.079,0,0,1-.852-.563,1.1,1.1,0,0,1-.18-.662.954.954,0,0,1,.4-.793,1.37,1.37,0,0,1,.861-.27,2.774,2.774,0,0,1,.613.086,2.168,2.168,0,0,0,.356.027C765.453,1183.613,765.529,1183.61,765.614,1183.6Z" transform="translate(-737.233 -1180.778)" fill="#868585"/>
        <path id="Path_1044" data-name="Path 1044" d="M786.69,1175.051a2.43,2.43,0,0,0-.072-.753.278.278,0,0,0-.27-.185l-.343.018c-.048,0-.072-.04-.072-.122q0-.086.113-.122a9.01,9.01,0,0,0,1.226-.379q.108,0,.108.086-.036.879-.036,1.587v1.154a3.986,3.986,0,0,0,.054.951q.067.122.55.158a.087.087,0,0,1,.072.1c0,.081-.024.122-.072.122q-.554-.018-.9-.018-.406,0-.942.018c-.048,0-.072-.041-.072-.122a.087.087,0,0,1,.072-.1.834.834,0,0,0,.509-.158,3.008,3.008,0,0,0,.072-.951Zm.275-4.074a.487.487,0,0,1,.37.18.493.493,0,0,1-.036.721.5.5,0,0,1-.712-.041.525.525,0,0,1,.379-.861Z" transform="translate(-755.552 -1170.761)" fill="#868585"/>
        <path id="Path_1045" data-name="Path 1045" d="M804.416,1173.321a1.474,1.474,0,0,1,1.217-.712,1.758,1.758,0,0,1,1.451.631,2.316,2.316,0,0,1,.46,1.51,2.233,2.233,0,0,1-.631,1.672,1.88,1.88,0,0,1-1.361.527,1.722,1.722,0,0,1-1.181-.491.139.139,0,0,0-.095-.036.122.122,0,0,0-.09.036l-.244.3a.246.246,0,0,1-.194.081q-.081,0-.081-.1.063-.892.063-1.934v-3.371a3.165,3.165,0,0,0-.054-.757.246.246,0,0,0-.243-.185l-.32.027c-.045,0-.068-.045-.068-.135q0-.086.1-.113a6.81,6.81,0,0,0,1.212-.37q.1,0,.1.077-.045,1.1-.045,2.177Zm0,2.019a1.352,1.352,0,0,0,.167.766,1.1,1.1,0,0,0,.942.545,1.065,1.065,0,0,0,.928-.563,2.45,2.45,0,0,0,.325-1.321,1.989,1.989,0,0,0-.41-1.33,1.072,1.072,0,0,0-.843-.4,1.193,1.193,0,0,0-.942.464.836.836,0,0,0-.167.554Z" transform="translate(-769.24 -1169.896)" fill="#868585"/>
        <path id="Path_1046" data-name="Path 1046" d="M834.25,1175.471v-4.043a2.489,2.489,0,0,0-.072-.757.28.28,0,0,0-.289-.185l-.324.018q-.072,0-.072-.108a.12.12,0,0,1,.1-.131,9.349,9.349,0,0,0,1.253-.37q.09,0,.09.077-.036.852-.036,2.2v3.3a3.149,3.149,0,0,0,.072.951q.076.122.527.167a.1.1,0,0,1,.086.113q0,.1-.081.1-.554-.018-.879-.018-.37,0-.96.018-.072,0-.072-.1t.072-.113q.424-.031.491-.167A2.8,2.8,0,0,0,834.25,1175.471Z" transform="translate(-793.595 -1169.896)" fill="#868585"/>
        <path id="Path_1047" data-name="Path 1047" d="M852.778,1185.276a3.091,3.091,0,0,0-.027.374,1.9,1.9,0,0,0,.482,1.343,1.2,1.2,0,0,0,.892.424,1.46,1.46,0,0,0,1.258-.649.071.071,0,0,1,.063-.036.162.162,0,0,1,.108.05.1.1,0,0,1,.049.072.2.2,0,0,1-.054.117,1.774,1.774,0,0,1-1.55.861,1.877,1.877,0,0,1-1.5-.653,2.2,2.2,0,0,1-.5-1.478,2.227,2.227,0,0,1,.64-1.645,1.809,1.809,0,0,1,1.334-.554,1.564,1.564,0,0,1,1.212.527,1.788,1.788,0,0,1,.451,1.109.153.153,0,0,1-.045.113.134.134,0,0,1-.095.045q-.933-.027-1.816-.027Q853.067,1185.267,852.778,1185.276Zm.054-.324q.27.009.757.009.627,0,1.194-.036c.06,0,.09-.04.09-.122a1.28,1.28,0,0,0-.316-.784.78.78,0,0,0-.582-.252.961.961,0,0,0-.73.347A1.836,1.836,0,0,0,852.832,1184.951Z" transform="translate(-808.401 -1180.778)" fill="#868585"/>
        <path id="Path_1048" data-name="Path 1048" d="M895.247,1180.731l-.573.009q-.09,0-.09-.122t.09-.135a1.21,1.21,0,0,0,.658-.37,1.99,1.99,0,0,0,.369-.631.125.125,0,0,1,.135-.081c.081,0,.122.031.122.095q-.027.676-.027.883.518,0,1.257-.018a.048.048,0,0,1,.054.054l-.085.262a.088.088,0,0,1-.09.063q-.334-.027-1.154-.027l-.018,2.263a1.655,1.655,0,0,0,.185.924.578.578,0,0,0,.487.239.789.789,0,0,0,.581-.252.078.078,0,0,1,.054-.027.136.136,0,0,1,.1.059.15.15,0,0,1,.041.09.077.077,0,0,1-.027.054,1.3,1.3,0,0,1-.969.491,1.109,1.109,0,0,1-.861-.316,1.478,1.478,0,0,1-.275-.987l.018-1.253Z" transform="translate(-842.461 -1177.499)" fill="#868585"/>
        <path id="Path_1049" data-name="Path 1049" d="M918.717,1187.322a1.758,1.758,0,0,1-1.316.509,1.11,1.11,0,0,1-.807-.293.859.859,0,0,1-.257-.64,1.062,1.062,0,0,1,.315-.811,2.962,2.962,0,0,1,1.1-.491,2.555,2.555,0,0,0,.73-.311.446.446,0,0,0,.2-.352v-.239q0-.947-.591-.946a.886.886,0,0,0-.626.221.615.615,0,0,0-.167.455.342.342,0,0,1-.185.293.752.752,0,0,1-.406.1.219.219,0,0,1-.248-.248q0-.419.563-.766a2.056,2.056,0,0,1,1.1-.307,1.316,1.316,0,0,1,1,.307,1.278,1.278,0,0,1,.234.874l-.018,2q-.013.784.347.784a.374.374,0,0,0,.225-.072.188.188,0,0,1,.081-.032.088.088,0,0,1,.072.05.156.156,0,0,1,.031.09.065.065,0,0,1-.036.054,1.152,1.152,0,0,1-.685.234A.644.644,0,0,1,918.717,1187.322Zm-.036-1.893a2.237,2.237,0,0,1-.847.437,1.364,1.364,0,0,0-.609.388.811.811,0,0,0-.158.514.7.7,0,0,0,.225.536.645.645,0,0,0,.446.176.986.986,0,0,0,.708-.257.693.693,0,0,0,.225-.518Z" transform="translate(-859.861 -1180.778)" fill="#868585"/>
        <path id="Path_1050" data-name="Path 1050" d="M942.69,1186.443q-.148.2-.23.32l-.451.649a.616.616,0,0,0-.149.352.205.205,0,0,0,.1.2,1.2,1.2,0,0,0,.37.077.093.093,0,0,1,.085.1q0,.1-.081.1-.5-.018-.807-.018-.266,0-.73.018c-.048,0-.072-.038-.072-.113,0-.057.024-.09.072-.1a.816.816,0,0,0,.428-.167,3.879,3.879,0,0,0,.487-.572l.536-.721q.189-.239.266-.347l-.672-1.01a3.745,3.745,0,0,0-.509-.663.7.7,0,0,0-.424-.131c-.048-.009-.072-.045-.072-.108s.024-.113.072-.113q.306.018.816.018.392,0,.969-.018.081,0,.081.1c0,.066-.028.1-.086.108q-.45.027-.451.2a1.446,1.446,0,0,0,.248.455l.5.735q.158-.189.2-.257l.415-.563a.705.705,0,0,0,.167-.361.156.156,0,0,0-.09-.158,1.159,1.159,0,0,0-.325-.054.088.088,0,0,1-.086-.1q0-.113.081-.113.5.018.744.018.288,0,.766-.018.063,0,.063.113t-.063.108a1.059,1.059,0,0,0-.464.14,2.887,2.887,0,0,0-.509.554l-.469.59-.266.325.793,1.172a4.3,4.3,0,0,0,.523.689.719.719,0,0,0,.455.14q.072.013.072.1,0,.113-.072.113-.536-.018-.834-.018-.388,0-.978.018-.063,0-.063-.09t.063-.113a1.047,1.047,0,0,0,.36-.059.123.123,0,0,0,.068-.117,1.255,1.255,0,0,0-.243-.5Z" transform="translate(-879.369 -1181.336)" fill="#868585"/>
        <path id="Path_1051" data-name="Path 1051" d="M969.227,1175.051a2.438,2.438,0,0,0-.072-.753.278.278,0,0,0-.27-.185l-.343.018c-.048,0-.072-.04-.072-.122,0-.057.037-.1.113-.122a9.008,9.008,0,0,0,1.226-.379q.108,0,.108.086-.036.879-.036,1.587v1.154a3.969,3.969,0,0,0,.054.951q.068.122.55.158a.087.087,0,0,1,.072.1c0,.081-.024.122-.072.122q-.554-.018-.9-.018-.406,0-.942.018c-.048,0-.072-.041-.072-.122a.087.087,0,0,1,.072-.1.834.834,0,0,0,.509-.158,3.018,3.018,0,0,0,.072-.951Zm.275-4.074a.486.486,0,0,1,.37.18.492.492,0,0,1-.036.721.5.5,0,0,1-.712-.041.525.525,0,0,1,.379-.861Z" transform="translate(-901.562 -1170.761)" fill="#868585"/>
      </g>
      <path id="Path_1053" data-name="Path 1053" d="M0,0V22.379" fill="none" stroke="#313131" stroke-width="1"/>
    </g>
  </g>
</svg>
