<svg xmlns="http://www.w3.org/2000/svg" width="30" height="30" viewBox="0 0 30 30">
  <g id="yt-icon" transform="translate(-486.5 -3226)">
    <rect id="Rectangle_777" data-name="Rectangle 777" width="30" height="30" rx="5" transform="translate(486.5 3226)" fill="#ffe56e"/>
    <path id="Icon_awesome-youtube" data-name="Icon awesome-youtube" d="M19.51,6.574A2.369,2.369,0,0,0,17.843,4.9a55.984,55.984,0,0,0-7.366-.4,55.984,55.984,0,0,0-7.366.4A2.369,2.369,0,0,0,1.444,6.574a24.851,24.851,0,0,0-.394,4.567,24.851,24.851,0,0,0,.394,4.567A2.334,2.334,0,0,0,3.111,17.36a55.984,55.984,0,0,0,7.366.4,55.984,55.984,0,0,0,7.366-.4,2.334,2.334,0,0,0,1.667-1.651,24.851,24.851,0,0,0,.394-4.567,24.851,24.851,0,0,0-.394-4.567ZM8.549,13.945V8.338l4.928,2.8-4.928,2.8Z" transform="translate(491.45 3229.5)" fill="#313131"/>
  </g>
</svg>
